<?xml version="1.0" encoding="utf-8"?><svg xmlns="http://www.w3.org/2000/svg" xmlns:xlink="http://www.w3.org/1999/xlink"><symbol fill="none" viewBox="0 0 38 31" id="cart" xmlns="http://www.w3.org/2000/svg"><path d="M28.7 28c0 .8.3 1.5.8 2 .6.5 1.2.8 2 .8.7 0 1.4-.3 2-.8.5-.5.8-1.2.8-2 0-.7-.3-1.4-.9-2-.5-.5-1.2-.7-2-.7-.7 0-1.3.2-1.9.8-.5.5-.8 1.2-.8 2zm7.9-24.6c-.2-.2-.6-.4-1-.4h-26a15.5 15.5 0 00-.4-1.7c0-.3-.2-.4-.3-.6a1.4 1.4 0 00-1-.5H2.3c-.4 0-.7.2-1 .5-.2.2-.4.6-.4 1 0 .3.2.6.4 1 .3.2.6.3 1 .3h4.4l3.9 18a61 61 0 01-1.1 2l-.3.9c0 .3.2.7.5 1 .2.2.6.4 1 .4h22.2c.3 0 .7-.2 1-.5.2-.2.4-.6.4-1 0-.3-.2-.6-.5-1-.2-.2-.6-.3-1-.3H13l.5-1.4v-.5a20 20 0 00-.3-1l22.7-2.7c.4 0 .7-.2.9-.4.2-.3.3-.6.3-1v-11c0-.5-.1-.8-.4-1zM9.2 28c0 .8.3 1.5.9 2 .5.5 1.2.8 2 .8.7 0 1.4-.3 1.9-.8s.8-1.2.8-2c0-.7-.3-1.4-.8-2-.5-.5-1.2-.7-2-.7-.7 0-1.4.2-2 .8-.5.5-.8 1.2-.8 2z" fill="currentColor"/></symbol><symbol viewBox="0 0 128 128" id="heart" xmlns="http://www.w3.org/2000/svg"><path d="M90.3 16A29 29 0 0064 33.2 29 29 0 008.8 45c0 36 51.8 65.5 54 66.7a2.5 2.5 0 002.4 0c2.2-1.2 54-30.8 54-66.7 0-15.9-13-28.8-28.9-28.8z" fill="currentColor"/></symbol><symbol viewBox="0 0 263.3 263.3" fill="currentColor" id="percent" xmlns="http://www.w3.org/2000/svg"><path d="M193.9 8.6a15 15 0 00-20.2 6.5L62.2 234.6a15 15 0 1026.7 13.6L200.5 28.7a15 15 0 00-6.6-20.1zm-80.1 72.2A57 57 0 10-.2 81a57 57 0 00114 0zm-57 27a27 27 0 11.2-54 27 27 0 01-.1 54zm149.6 17.8a57 57 0 10.1 113.9 57 57 0 00-.1-114zm0 83.8a27 27 0 110-53.9 27 27 0 010 53.9z"/></symbol><symbol viewBox="0 0 431.9 431.9" fill="currentColor" id="question" xmlns="http://www.w3.org/2000/svg"><path d="M216 0a215.9 215.9 0 10-.2 431.8A215.9 215.9 0 00216 0zm15.3 336c-5 4.4-10.8 6.7-17.4 6.7-6.8 0-12.7-2.2-17.8-6.6-5-4.5-7.6-10.6-7.6-18.6a24.9 24.9 0 0125.5-25c7 .1 12.9 2.5 17.7 7.3a24.1 24.1 0 017.2 17.7c0 7.9-2.6 14-7.6 18.5zM294 181a76.3 76.3 0 01-13.8 18.4c-5.3 5.2-14.8 14-28.5 26.2-3.8 3.5-6.9 6.5-9.1 9.2a37.2 37.2 0 00-7.7 13.7c-.7 2.2-1.6 6-2.8 11.5-2.1 11.6-8.8 17.4-20 17.4-5.7 0-10.6-2-14.6-5.7-4-3.8-6-9.4-6-17 0-9.3 1.5-17.4 4.4-24.3a61.6 61.6 0 0111.6-18c4.8-5.3 11.2-11.4 19.4-18.6 7.1-6.2 12.3-11 15.5-14.1 3.2-3.2 5.8-6.7 8-10.7 2.2-3.9 3.3-8.1 3.3-12.7 0-9-3.3-16.4-10-22.6a36.4 36.4 0 00-25.7-9.2c-12.3 0-21.3 3.1-27.1 9.3a74.1 74.1 0 00-14.7 27.4c-3.8 12.6-11 18.9-21.6 18.9-6.3 0-11.6-2.2-15.9-6.6a20.2 20.2 0 01-6.4-14.3c0-10.6 3.4-21.4 10.2-32.2a78.6 78.6 0 0129.8-27A93.7 93.7 0 01218 89.1c16.2 0 30.5 3 42.9 9 12.4 6 22 14 28.7 24.3a59.8 59.8 0 014.4 58.4z"/></symbol></svg>